<svg width="46" height="46" viewBox="0 0 46 46" fill="none" xmlns="http://www.w3.org/2000/svg">
<path d="M41.0714 37.7857H31.2143C29.9071 37.7857 28.6535 38.305 27.7293 39.2293C26.805 40.1535 26.2857 41.4072 26.2857 42.7143V46H29.5714V42.7143C29.5714 42.2786 29.7445 41.8607 30.0526 41.5526C30.3607 41.2445 30.7786 41.0714 31.2143 41.0714H41.0714C41.5071 41.0714 41.925 41.2445 42.2331 41.5526C42.5412 41.8607 42.7143 42.2786 42.7143 42.7143V46H46V42.7143C46 41.4072 45.4807 40.1535 44.5565 39.2293C43.6322 38.305 42.3786 37.7857 41.0714 37.7857ZM29.5714 29.5714C29.5714 30.8711 29.9568 32.1417 30.6789 33.2223C31.401 34.303 32.4273 35.1453 33.6281 35.6426C34.8289 36.14 36.1501 36.2702 37.4249 36.0166C38.6996 35.763 39.8705 35.1372 40.7896 34.2181C41.7086 33.2991 42.3345 32.1282 42.588 30.8535C42.8416 29.5787 42.7114 28.2574 42.2141 27.0567C41.7167 25.8559 40.8744 24.8296 39.7937 24.1075C38.7131 23.3854 37.4426 23 36.1429 23C34.4 23 32.7285 23.6924 31.4962 24.9247C30.2638 26.1571 29.5714 27.8286 29.5714 29.5714ZM39.4286 29.5714C39.4286 30.2213 39.2359 30.8565 38.8748 31.3969C38.5138 31.9372 38.0006 32.3583 37.4002 32.607C36.7999 32.8557 36.1392 32.9208 35.5018 32.794C34.8645 32.6672 34.279 32.3543 33.8195 31.8948C33.36 31.4353 33.0471 30.8498 32.9203 30.2124C32.7935 29.5751 32.8586 28.9144 33.1073 28.314C33.3559 27.7137 33.7771 27.2005 34.3174 26.8395C34.8577 26.4784 35.493 26.2857 36.1429 26.2857C37.0143 26.2857 37.85 26.6319 38.4662 27.2481C39.0824 27.8643 39.4286 28.7 39.4286 29.5714ZM6.57143 31.2143V29.5714H3.28571V31.2143C3.28571 34.2643 4.49732 37.1894 6.65399 39.346C8.81065 41.5027 11.7357 42.7143 14.7857 42.7143H19.7143V39.4286H14.7857C12.6072 39.4286 10.5178 38.5631 8.97734 37.0227C7.43686 35.4822 6.57143 33.3929 6.57143 31.2143ZM27.9286 13.1429H39.4286V16.4286H27.9286V13.1429ZM27.9286 6.57143H44.3571V9.85715H27.9286V6.57143ZM27.9286 2.75793e-06H44.3571V3.28572H27.9286V2.75793e-06ZM14.7857 14.7857H4.92857C3.62143 14.7857 2.36783 15.305 1.44355 16.2293C0.519259 17.1535 0 18.4072 0 19.7143V23H3.28571V19.7143C3.28571 19.2786 3.4588 18.8607 3.7669 18.5526C4.07499 18.2445 4.49286 18.0714 4.92857 18.0714H14.7857C15.2214 18.0714 15.6393 18.2445 15.9474 18.5526C16.2555 18.8607 16.4286 19.2786 16.4286 19.7143V23H19.7143V19.7143C19.7143 18.4072 19.195 17.1535 18.2707 16.2293C17.3465 15.305 16.0929 14.7857 14.7857 14.7857ZM9.85714 13.1429C11.1568 13.1429 12.4274 12.7575 13.508 12.0354C14.5887 11.3133 15.431 10.287 15.9284 9.08621C16.4257 7.88544 16.5559 6.56414 16.3023 5.28941C16.0487 4.01468 15.4229 2.84376 14.5038 1.92473C13.5848 1.0057 12.4139 0.379831 11.1392 0.126271C9.86443 -0.127289 8.54314 0.00284728 7.34237 0.500223C6.14159 0.997599 5.11528 1.83988 4.3932 2.92054C3.67112 4.00121 3.28571 5.27173 3.28571 6.57143C3.28571 8.31428 3.97806 9.98575 5.21044 11.2181C6.44282 12.4505 8.11429 13.1429 9.85714 13.1429ZM9.85714 3.28572C10.507 3.28572 11.1423 3.47842 11.6826 3.83946C12.2229 4.2005 12.6441 4.71366 12.8927 5.31404C13.1414 5.91443 13.2065 6.57508 13.0797 7.21244C12.9529 7.84981 12.64 8.43527 12.1805 8.89478C11.721 9.3543 11.1355 9.66723 10.4982 9.79401C9.86079 9.92079 9.20014 9.85572 8.59975 9.60704C7.99937 9.35835 7.48621 8.93721 7.12517 8.39688C6.76413 7.85654 6.57143 7.22128 6.57143 6.57143C6.57143 5.70001 6.9176 4.86427 7.53379 4.24808C8.14998 3.63189 8.98572 3.28572 9.85714 3.28572Z" fill="#6B7280"/>
</svg>
