<svg width="46" height="46" viewBox="0 0 46 46" fill="none" xmlns="http://www.w3.org/2000/svg">
<path d="M21.9066 0.306343C21.3902 0.310562 20.8664 0.338275 20.3356 0.390728C25.0966 1.82959 29.1698 4.87291 32.1559 8.70246C25.0445 1.81281 12.5172 0.660568 5.42406 9.30533C8.44993 7.68408 11.8318 6.84282 15.2439 6.6333C6.25592 9.54343 -1.43749 19.8168 0.228437 31.0733C0.716336 26.4662 2.99607 22.489 6.11467 19.1901C2.44604 26.3133 3.02503 35.6269 10.0112 41.3589C7.57463 36.8115 6.83914 31.5391 7.56255 26.5591C7.43789 36.6373 15.5678 46.7256 26.8927 45.6086C22.1314 44.1697 18.0585 41.1263 15.0724 37.2967C22.5254 43.5949 34.0744 43.7088 41.8042 36.6937C30.4247 40.9852 21.217 38.7324 15.6983 34.0279C10.0209 30.1209 8.20665 22.4192 11.7107 16.3499C12.3352 15.267 13.1088 14.2773 14.009 13.4099C14.2756 13.105 14.5494 12.8151 14.8335 12.5398C15.055 12.4151 15.2767 12.2931 15.4985 12.1731C17.8702 10.4782 20.7405 9.60317 23.6411 9.6772C25.7948 9.73215 27.9648 10.3095 29.9584 11.4606C34.1796 13.8977 36.5658 18.3052 36.6318 22.8566C36.6924 23.1964 36.7231 23.5408 36.7236 23.8859C36.7236 27.1347 34.0898 29.7683 30.841 29.7683C27.5925 29.7683 24.9588 27.1346 24.9588 23.8859C24.9588 23.7231 24.9668 23.5622 24.9797 23.4026C25.5056 25.2108 27.1737 26.5329 29.1514 26.5329C31.5513 26.5329 33.4967 24.5873 33.4967 22.1876C33.4967 19.8109 31.5882 17.8809 29.2203 17.8438C28.7396 17.7644 28.2532 17.7245 27.7659 17.7244C22.857 17.7244 18.8777 21.7039 18.8777 26.6126C18.8777 31.5213 22.8572 35.5005 27.7659 35.5005C27.8651 35.5003 27.9642 35.4986 28.0632 35.4952C28.0471 35.5013 28.0313 35.5078 28.0153 35.5139C28.4107 35.4957 28.8052 35.4627 29.1982 35.4151C34.2411 35.3301 41.0278 32.9263 43.9742 28.5396C42.2191 29.3532 40.5541 29.9384 38.941 30.1471C39.5623 29.4229 40.123 28.6489 40.6174 27.8329C44.0836 23.5448 46.819 17.0213 45.7749 11.7039C45.0849 13.5862 44.3029 15.2563 43.3178 16.6503C43.0093 12.1897 41.0851 7.81383 37.2172 4.64038C39.6534 9.18777 40.3889 14.4601 39.6655 19.4401C39.7844 9.83427 32.4042 0.219465 21.9063 0.306247L21.9066 0.306343Z" fill="#6B7280"/>
</svg>
