<svg width="46" height="46" viewBox="0 0 46 46" fill="none" xmlns="http://www.w3.org/2000/svg">
<path d="M38.3042 15.3916C36.3691 15.3916 34.6886 14.7698 33.2626 13.5263C31.8366 12.2812 30.9887 10.7211 30.7188 8.8458H15.2237C14.9784 10.5156 14.2715 11.9416 13.1031 13.1238C11.9347 14.3091 10.5164 15.0236 8.8481 15.2674V30.7188C10.7218 30.9902 12.2812 31.8381 13.5263 33.2626C14.7698 34.6886 15.3916 36.3691 15.3916 38.3042C15.3916 40.4509 14.6456 42.2702 13.1537 43.7621C11.6618 45.254 9.84247 46 7.6958 46C5.54913 46 3.72983 45.254 2.2379 43.7621C0.745967 42.2702 0 40.4509 0 38.3042C0 36.3691 0.622533 34.6886 1.8676 33.2626C3.11113 31.8366 4.67053 30.9887 6.5458 30.7188V15.2674C4.67053 14.9975 3.11113 14.1534 1.8676 12.7351C0.622533 11.3168 0 9.63777 0 7.6981C0 5.55143 0.749033 3.73137 2.2471 2.2379C3.7467 0.745967 5.54837 0 7.6521 0C9.59177 0 11.2708 0.622533 12.6891 1.8676C14.1074 3.11113 14.9523 4.67053 15.2237 6.5458H30.7188C30.9902 4.67053 31.8381 3.11113 33.2626 1.8676C34.6886 0.622533 36.3691 0 38.3042 0C40.4202 0 42.2318 0.753633 43.7391 2.2609C45.2464 3.76817 46 5.5798 46 7.6958C46 9.84247 45.2464 11.6618 43.7391 13.1537C42.2318 14.6456 40.4202 15.3916 38.3042 15.3916ZM7.6682 43.746C9.18773 43.746 10.4719 43.2124 11.5207 42.1452C12.568 41.078 13.0916 39.8076 13.0916 38.3341C13.0916 36.8146 12.568 35.5304 11.5207 34.4816C10.4719 33.4343 9.18773 32.9107 7.6682 32.9107C6.1962 32.9107 4.92583 33.4343 3.8571 34.4816C2.7899 35.5304 2.2563 36.8146 2.2563 38.3341C2.2563 39.8061 2.7899 41.0765 3.8571 42.1452C4.9243 43.2124 6.19467 43.746 7.6682 43.746ZM7.6682 13.1399C9.18773 13.1399 10.4719 12.6063 11.5207 11.5391C12.568 10.4734 13.0916 9.19157 13.0916 7.6935C13.0916 6.19543 12.568 4.92277 11.5207 3.8755C10.4719 2.82517 9.18773 2.3 7.6682 2.3C6.1962 2.3 4.92583 2.8244 3.8571 3.8732C2.7899 4.92047 2.2563 6.19313 2.2563 7.6912C2.2563 9.18927 2.7899 10.4711 3.8571 11.5368C4.9243 12.604 6.19467 13.1399 7.6682 13.1399ZM38.3042 46C36.1575 46 34.3382 45.254 32.8463 43.7621C31.3544 42.2702 30.6084 40.4608 30.6084 38.3341C30.6084 36.2104 31.3544 34.3919 32.8463 32.8785C34.3382 31.3651 36.1575 30.6084 38.3042 30.6084C40.4509 30.6084 42.2702 31.3651 43.7621 32.8785C45.254 34.3919 46 36.2112 46 38.3364C46 40.4616 45.254 42.2702 43.7621 43.7621C42.2702 45.254 40.4509 46 38.3042 46ZM38.3088 43.746C39.8069 43.746 41.0795 43.2116 42.1268 42.1429C43.1756 41.0757 43.7 39.8053 43.7 38.3318C43.7 36.8123 43.1756 35.5281 42.1268 34.4793C41.0795 33.432 39.8069 32.9084 38.3088 32.9084C36.8107 32.9084 35.5289 33.432 34.4632 34.4793C33.396 35.5281 32.8624 36.8123 32.8624 38.3318C32.8624 39.8038 33.396 41.0742 34.4632 42.1429C35.5289 43.2101 36.8107 43.7437 38.3088 43.7437V43.746ZM38.3088 13.1376C39.8069 13.1376 41.0795 12.604 42.1268 11.5368C43.1756 10.4711 43.7 9.18927 43.7 7.6912C43.7 6.19313 43.1756 4.92047 42.1268 3.8732C41.0795 2.8244 39.8069 2.3 38.3088 2.3C36.8107 2.3 35.5289 2.8244 34.4632 3.8732C33.396 4.92047 32.8624 6.19313 32.8624 7.6912C32.8624 9.18927 33.396 10.4711 34.4632 11.5368C35.5289 12.604 36.8107 13.1376 38.3088 13.1376ZM7.6498 43.7437C6.18853 43.7437 4.92353 43.2101 3.8548 42.1429C2.78913 41.0757 2.2563 39.8107 2.2563 38.3479C2.2563 36.8176 2.7899 35.5281 3.8571 34.4793C4.9243 33.432 6.1893 32.9084 7.6521 32.9084C9.18237 32.9084 10.4719 33.432 11.5207 34.4793C12.568 35.5281 13.0916 36.8176 13.0916 38.3479C13.0916 39.8107 12.568 41.078 11.5207 42.1452C10.4719 43.2124 9.18007 43.7437 7.6498 43.7437ZM7.6498 13.1376C6.18853 13.1376 4.92353 12.6055 3.8548 11.5414C2.78913 10.4788 2.2563 9.19693 2.2563 7.6958C2.2563 6.19467 2.7899 4.92047 3.8571 3.8732C4.9243 2.8244 6.1893 2.3 7.6521 2.3C9.18237 2.3 10.4719 2.8267 11.5207 3.8755C12.568 4.92277 13.0916 6.19467 13.0916 7.6958C13.0916 9.19693 12.568 10.4765 11.5207 11.5391C10.4719 12.6032 9.18007 13.1376 7.6498 13.1376ZM38.3042 43.7437C36.8031 43.7437 35.5212 43.2101 34.4586 42.1429C33.3945 41.0757 32.8624 39.8107 32.8624 38.3479C32.8624 36.8176 33.3945 35.5281 34.4586 34.4793C35.5212 33.432 36.8031 32.9084 38.3042 32.9084C39.8053 32.9084 41.0795 33.432 42.1268 34.4793C43.1756 35.5281 43.7 36.8176 43.7 38.3479C43.7 39.8107 43.1756 41.0757 42.1268 42.1429C41.0795 43.2101 39.8053 43.7437 38.3042 43.7437ZM38.3042 13.1376C36.8031 13.1376 35.5212 12.6055 34.4586 11.5414C33.3945 10.4788 32.8624 9.19693 32.8624 7.6958C32.8624 6.19467 33.3945 4.92047 34.4586 3.8732C35.5212 2.8244 36.8031 2.3 38.3042 2.3C39.8053 2.3 41.0795 2.8244 42.1268 3.8732C43.1756 4.92047 43.7 6.19467 43.7 7.6958C43.7 9.19693 43.1756 10.4788 42.1268 11.5414C41.0795 12.6055 39.8053 13.1376 38.3042 13.1376Z" fill="#6B7280"/>
</svg>
